<svg width="157" height="49" viewBox="0 0 157 49" fill="none" xmlns="http://www.w3.org/2000/svg">
<path d="M16.84 48.448C13.7253 48.448 10.9093 47.9147 8.392 46.848C5.91733 45.7813 3.95467 44.2453 2.504 42.24C1.05333 40.2347 0.306667 37.8667 0.264 35.136H9.864C9.992 36.9707 10.632 38.4213 11.784 39.488C12.9787 40.5547 14.6 41.088 16.648 41.088C18.7387 41.088 20.3813 40.5973 21.576 39.616C22.7707 38.592 23.368 37.2693 23.368 35.648C23.368 34.3253 22.9627 33.2373 22.152 32.384C21.3413 31.5307 20.3173 30.8693 19.08 30.4C17.8853 29.888 16.2213 29.3333 14.088 28.736C11.1867 27.8827 8.81867 27.0507 6.984 26.24C5.192 25.3867 3.63467 24.128 2.312 22.464C1.032 20.7573 0.392 18.496 0.392 15.68C0.392 13.0347 1.05333 10.7307 2.376 8.768C3.69867 6.80533 5.55467 5.312 7.944 4.288C10.3333 3.22133 13.064 2.688 16.136 2.688C20.744 2.688 24.4773 3.81867 27.336 6.08C30.2373 8.29866 31.8373 11.4133 32.136 15.424H22.28C22.1947 13.888 21.5333 12.6293 20.296 11.648C19.1013 10.624 17.5013 10.112 15.496 10.112C13.7467 10.112 12.3387 10.56 11.272 11.456C10.248 12.352 9.736 13.6533 9.736 15.36C9.736 16.5547 10.12 17.5573 10.888 18.368C11.6987 19.136 12.68 19.776 13.832 20.288C15.0267 20.7573 16.6907 21.312 18.824 21.952C21.7253 22.8053 24.0933 23.6587 25.928 24.512C27.7627 25.3653 29.3413 26.6453 30.664 28.352C31.9867 30.0587 32.648 32.2987 32.648 35.072C32.648 37.4613 32.0293 39.68 30.792 41.728C29.5547 43.776 27.7413 45.4187 25.352 46.656C22.9627 47.8507 20.1253 48.448 16.84 48.448Z" fill="#FFB61D"/>
<path d="M49.376 0.639999V48H40.416V0.639999H49.376ZM102.261 12.032C106.613 12.032 110.111 13.376 112.757 16.064C115.445 18.7093 116.789 22.4213 116.789 27.2V48H107.829V28.416C107.829 25.6427 107.125 23.5307 105.717 22.08C104.309 20.5867 102.389 19.84 99.9565 19.84C97.5245 19.84 95.5832 20.5867 94.1325 22.08C92.7245 23.5307 92.0205 25.6427 92.0205 28.416V48H83.0605V28.416C83.0605 25.6427 82.3565 23.5307 80.9485 22.08C79.5405 20.5867 77.6205 19.84 75.1885 19.84C72.7138 19.84 70.7512 20.5867 69.3005 22.08C67.8925 23.5307 67.1885 25.6427 67.1885 28.416V48H58.2285V12.544H67.1885V16.832C68.3405 15.3387 69.8125 14.1653 71.6045 13.312C73.4392 12.4587 75.4445 12.032 77.6205 12.032C80.3938 12.032 82.8685 12.6293 85.0445 13.824C87.2205 14.976 88.9058 16.64 90.1005 18.816C91.2525 16.768 92.9165 15.1253 95.0925 13.888C97.3112 12.6507 99.7005 12.032 102.261 12.032ZM140.715 48.448C137.6 48.448 134.784 47.9147 132.267 46.848C129.792 45.7813 127.83 44.2453 126.379 42.24C124.928 40.2347 124.182 37.8667 124.139 35.136H133.739C133.867 36.9707 134.507 38.4213 135.659 39.488C136.854 40.5547 138.475 41.088 140.523 41.088C142.614 41.088 144.256 40.5973 145.451 39.616C146.646 38.592 147.243 37.2693 147.243 35.648C147.243 34.3253 146.838 33.2373 146.027 32.384C145.216 31.5307 144.192 30.8693 142.955 30.4C141.76 29.888 140.096 29.3333 137.963 28.736C135.062 27.8827 132.694 27.0507 130.859 26.24C129.067 25.3867 127.51 24.128 126.187 22.464C124.907 20.7573 124.267 18.496 124.267 15.68C124.267 13.0347 124.928 10.7307 126.251 8.768C127.574 6.80533 129.43 5.312 131.819 4.288C134.208 3.22133 136.939 2.688 140.011 2.688C144.619 2.688 148.352 3.81867 151.211 6.08C154.112 8.29866 155.712 11.4133 156.011 15.424H146.155C146.07 13.888 145.408 12.6293 144.171 11.648C142.976 10.624 141.376 10.112 139.371 10.112C137.622 10.112 136.214 10.56 135.147 11.456C134.123 12.352 133.611 13.6533 133.611 15.36C133.611 16.5547 133.995 17.5573 134.763 18.368C135.574 19.136 136.555 19.776 137.707 20.288C138.902 20.7573 140.566 21.312 142.699 21.952C145.6 22.8053 147.968 23.6587 149.803 24.512C151.638 25.3653 153.216 26.6453 154.539 28.352C155.862 30.0587 156.523 32.2987 156.523 35.072C156.523 37.4613 155.904 39.68 154.667 41.728C153.43 43.776 151.616 45.4187 149.227 46.656C146.838 47.8507 144 48.448 140.715 48.448Z" fill="#00160A"/>
</svg>
